<?xml version="1.0" encoding="utf-8"?>
<!-- Generator: Adobe Illustrator 24.1.3, SVG Export Plug-In . SVG Version: 6.00 Build 0)  -->
<svg version="1.1" id="Vrstva_1" xmlns="http://www.w3.org/2000/svg" xmlns:xlink="http://www.w3.org/1999/xlink" x="0px" y="0px"
	 viewBox="0 0 413 173" style="enable-background:new 0 0 413 173;" xml:space="preserve">
<style type="text/css">
	.st0{fill:#FFFFFF;}
	.st1{fill-rule:evenodd;clip-rule:evenodd;fill:url(#SVGID_1_);}
	.st2{fill-rule:evenodd;clip-rule:evenodd;fill:#00B9FF;}
</style>
<g transform="matrix(1.47482,0,0,1.47482,-18.2192,-541.058)">
	<g transform="matrix(83.6247,0,0,83.6247,268.73,447.116)">
		<path class="st0" d="M-1.9615992-0.1368245c0,0.0823741,0.0229397,0.1303387,0.0552636,0.1626627
			c0.0344094,0.0333667,0.0771605,0.0417084,0.1167835,0.0417084c0.0375376,0,0.0813314-0.0083417,0.1157408-0.0417084
			c0.032324-0.032324,0.0542209-0.0802886,0.0542209-0.1626627v-0.0145979c0-0.0208542-0.0166835-0.0375376-0.0364949-0.0375376
			h-0.0302386c-0.0208541,0-0.0375376,0.0166834-0.0375376,0.0375376v0.0145979
			c0,0.0375375-0.0052135,0.0656907-0.0177261,0.0823741c-0.0093843,0.0104271-0.0281531,0.0187688-0.0479646,0.0187688
			c-0.0448365,0-0.0667334-0.0312813-0.0667334-0.1011428v-0.2950868c0-0.0698615,0.0229396-0.1001001,0.0667334-0.1001001
			c0.0427511,0,0.0656906,0.0302386,0.0656906,0.1001001v0.014598c0,0.0208542,0.0166835,0.0375375,0.0375376,0.0375375h0.0302386
			c0.0198114,0,0.0364949-0.0166833,0.0364949-0.0375375v-0.014598c0-0.0792459-0.021897-0.1313814-0.0552636-0.1626627
			c-0.0344094-0.0312813-0.0761178-0.0406657-0.1146981-0.0406657c-0.039623,0-0.0813314,0.0093844-0.1157408,0.0406657
			c-0.0333667,0.0312813-0.0563064,0.0834168-0.0563064,0.1626627V-0.1368245z"/>
	</g>
	<g transform="matrix(83.6247,0,0,83.6247,301.678,447.116)">
		<path class="st0" d="M-1.8425862-0.5977021c0-0.0208542-0.0177261-0.0375376-0.0375376-0.0375376h-0.0291958
			c-0.0208542,0-0.0375376,0.0166834-0.0375376,0.0375376V0.030009c0,0.0208542,0.0166833,0.0375375,0.0375376,0.0375375h0.0291958
			c0.0198115,0,0.0375376-0.0166834,0.0375376-0.0375375V-0.5977021z"/>
	</g>
	<g transform="matrix(83.6247,0,0,83.6247,315.393,447.116)">
		<path class="st0" d="M-1.6280823,0.0675466c0.0208542,0,0.0375376-0.0166834,0.0375376-0.0375375v-0.6277112
			c0-0.0208542-0.0166833-0.0375376-0.0375376-0.0375376h-0.0291959c-0.0208541,0-0.0375376,0.0166834-0.0375376,0.0375376
			v0.3440942L-1.8397523-0.6123c-0.0041709-0.0114698-0.0208542-0.0229396-0.0344094-0.0229396h-0.025025
			c-0.0198115,0-0.0375376,0.0166834-0.0375376,0.0375376v0.6277112c0,0.0208542,0.0177261,0.0375375,0.0375376,0.0375375h0.0302385
			c0.0198115,0,0.0375376-0.0166834,0.0375376-0.0375375V-0.314085l0.1449367,0.3586921
			c0.0041708,0.0114698,0.0218968,0.0229396,0.0344094,0.0229396h0.0239823V0.0675466z"/>
	</g>
	<g transform="matrix(83.6247,0,0,83.6247,349.679,447.116)">
		<path class="st0" d="M-1.881676-0.6352397c-0.0208541,0-0.0375376,0.0166834-0.0375376,0.0375376V0.030009
			c0,0.0208542,0.0166835,0.0375375,0.0375376,0.0375375h0.2252253c0.0208541,0,0.0375375-0.0166834,0.0375375-0.0375375V0.0018559
			c0-0.0208542-0.0166833-0.0375375-0.0375375-0.0375375h-0.1595346v-0.1970721h0.1313814
			c0.0208542,0,0.0375376-0.0166834,0.0375376-0.0375376v-0.0281532c0-0.0208542-0.0166833-0.0375375-0.0375376-0.0375375
			h-0.1313814v-0.1960294h0.1595346c0.0208541,0,0.0375375-0.0166834,0.0375375-0.0375376v-0.0281531
			c0-0.0208542-0.0166833-0.0375376-0.0375375-0.0375376H-1.881676z"/>
	</g>
	<g transform="matrix(83.6247,0,0,83.6247,379.199,447.116)">
		<path class="st0" d="M-1.7070646,0.0675466c0.0156406,0,0.032324-0.0135552,0.0364949-0.0302386l0.0344094-0.2314815V0.030009
			c0,0.0208542,0.0166833,0.0375375,0.0375376,0.0375375h0.0291959c0.0208541,0,0.0375375-0.0166834,0.0375375-0.0375375v-0.6277112
			c0-0.0208542-0.0166833-0.0375376-0.0375375-0.0375376h-0.0312814c-0.0156406,0-0.0333667,0.0135552-0.0364949,0.0291958
			l-0.0813314,0.420212l-0.082374-0.420212C-1.8040366-0.6216846-1.82072-0.6352397-1.8363606-0.6352397h-0.0312814
			c-0.0208541,0-0.0375376,0.0166834-0.0375376,0.0375376V0.030009c0,0.0208542,0.0166835,0.0375375,0.0375376,0.0375375h0.0291959
			c0.0198115,0,0.0375376-0.0166834,0.0375376-0.0375375v-0.226268l0.0354521,0.2346096
			c0.0031281,0.0156406,0.0198114,0.0291959,0.0354521,0.0291959C-1.7300042,0.0675465-1.7070646,0.0675465-1.7070646,0.0675466z"/>
	</g>
	<g transform="matrix(83.6247,0,0,83.6247,413.568,447.116)">
		<path class="st0" d="M-1.6019238,0.0383507c0.0041709,0.0156406,0.0208542,0.0291959,0.0364949,0.0291959h0.0302386
			c0.025025,0,0.0417084-0.0218969,0.0364949-0.0458792l-0.143894-0.6277112
			c-0.0031282-0.0156406-0.0208542-0.0291958-0.0364949-0.0291958h-0.0229396c-0.0156407,0-0.0323241,0.0135552-0.0364949,0.0291958
			l-0.0948865,0.4076995l-0.0500501,0.2210544c-0.0052135,0.0239823,0.0114698,0.0448365,0.0364949,0.0448365h0.0302386
			c0.0156406,0,0.032324-0.0135552,0.0364949-0.0291959l0.0364947-0.1626627h0.1063564L-1.6019238,0.0383507z M-1.6905541-0.3943737
			c0.0198115,0.0886303,0.0177261,0.1167834,0.0291959,0.1668335h-0.0583917L-1.6905541-0.3943737z"/>
	</g>
</g>
<linearGradient id="SVGID_1_" gradientUnits="userSpaceOnUse" x1="50.6066933" y1="86.6967316" x2="151.724472" y2="86.6967316">
	<stop  offset="0" style="stop-color:#00B9FF"/>
	<stop  offset="0.4016806" style="stop-color:#08B9EF;stop-opacity:0.4914271"/>
	<stop  offset="0.7898192" style="stop-color:#0EB9E5;stop-opacity:0"/>
</linearGradient>
<polygon class="st1" points="51.0278816,69.20504 151.724472,17.3466606 151.724472,156.0467987 50.6066933,103.1108093 "/>
<g transform="matrix(0.67805,0,0,0.67805,-8.32841,368.142)">
	<g transform="matrix(8.47526e-17,-1.38412,1.48428,9.0886e-17,181.678,510.31)">
		<path class="st2" d="M699.6055298-26.4804592c1.6807861,0,3.244751-0.8058052,4.1383057-2.1329403
			c0.8949585-1.3271236,0.9949341-2.9910355,0.2659912-4.4027405l-15.3334961-29.6888885
			c-0.8150024-1.5777855-2.5266113-2.5804329-4.4042969-2.5804329h-30.6638184
			c-1.8791504,0-3.5907593,1.0026474-4.4058228,2.5804329L633.8704834-33.01614
			c-0.7289429,1.411705-0.6289673,3.0756168,0.2659912,4.4027405c0.8934937,1.3271351,2.4574585,2.1329403,4.1383057,2.1329403
			H699.6055298z M699.6055298-31.0385132h-61.3307495l15.3334351-29.6888924h30.6638184L699.6055298-31.0385132z"/>
	</g>
	<g transform="matrix(-124.076,0,0,112.572,324.673,113.528)">
		<path class="st2" d="M2.1438816-5.0362902h0.1814611c0.06305,0,0.1091845-0.0522857,0.1091845-0.1153355v-0.0415211
			c0-0.0630498-0.0461345-0.1153355-0.1091845-0.1153355H1.9931766c-0.06305,0-0.1091841,0.0522857-0.1091841,0.1153355v0.9257593
			c0,0.0630503,0.0461341,0.1153355,0.1091841,0.1153355h0.3321661c0.06305,0,0.1091845-0.0522852,0.1091845-0.1153355V-4.308908
			c0-0.0630503-0.0461345-0.1153355-0.1091845-0.1153355H2.1438816v-0.1706967h0.1399403
			c0.06305,0,0.1091845-0.0522852,0.1091845-0.1153355v-0.0415206c0-0.0630503-0.0461345-0.1153355-0.1091845-0.1153355H2.1438816
			V-5.0362902z M1.9931766-5.2485075c-0.030756,0-0.055361,0.0246048-0.055361,0.0553608v0.9257593
			c0,0.0307565,0.024605,0.0553613,0.055361,0.0553613h0.3321661c0.0307562,0,0.055361-0.0246053,0.055361-0.0553613V-4.308908
			c0-0.030756-0.0246048-0.0553608-0.055361-0.0553608H2.0900586v-0.2906456h0.1937633
			c0.0307562,0,0.055361-0.0246048,0.055361-0.0553613v-0.0415206c0-0.030756-0.0246048-0.0553613-0.055361-0.0553613H2.0900586
			v-0.2891073h0.2352841c0.0307562,0,0.055361-0.0246053,0.055361-0.0553613v-0.0415206
			c0-0.030756-0.0246048-0.0553613-0.055361-0.0553613H1.9931766V-5.2485075z"/>
	</g>
</g>
</svg>
